<svg width="24" height="24" viewBox="0 0 24 24" fill="none" xmlns="http://www.w3.org/2000/svg">
<path d="M9.57 18.819C9.47147 18.8194 9.37387 18.8001 9.28287 18.7623C9.19187 18.7246 9.10931 18.669 9.04 18.599L2.971 12.529C2.83152 12.3879 2.7533 12.1975 2.7533 11.999C2.7533 11.8006 2.83152 11.6102 2.971 11.469L9.04 5.40002C9.18217 5.26754 9.37022 5.19542 9.56452 5.19885C9.75882 5.20228 9.94421 5.28099 10.0816 5.4184C10.219 5.55581 10.2977 5.7412 10.3012 5.9355C10.3046 6.1298 10.2325 6.31785 10.1 6.46002L4.56 12L10.1 17.54C10.2395 17.6812 10.3177 17.8716 10.3177 18.07C10.3177 18.2685 10.2395 18.4589 10.1 18.6C10.0312 18.6706 9.9487 18.7265 9.85757 18.7642C9.76644 18.8018 9.66859 18.8205 9.57 18.819Z" fill="#0B032D"/>
<path d="M20.5 12.75H3.66998C3.47148 12.7487 3.28147 12.6693 3.1411 12.5289C3.00073 12.3885 2.92129 12.1985 2.91998 12C2.92129 11.8015 3.00073 11.6115 3.1411 11.4711C3.28147 11.3307 3.47148 11.2513 3.66998 11.25H20.5C20.6985 11.2513 20.8885 11.3307 21.0289 11.4711C21.1692 11.6115 21.2487 11.8015 21.25 12C21.2487 12.1985 21.1692 12.3885 21.0289 12.5289C20.8885 12.6693 20.6985 12.7487 20.5 12.75Z" fill="#0B032D"/>
</svg>
