<svg width="24" height="24" viewBox="0 0 24 24" fill="none" xmlns="http://www.w3.org/2000/svg">
<g clip-path="url(#clip0_3015_1082)">
<path d="M4.93 22.75C4.52365 22.754 4.12347 22.6505 3.77 22.45C3.36644 22.1787 3.04191 21.8054 2.82938 21.3681C2.61685 20.9307 2.52391 20.4449 2.56 19.96V5.86C2.56211 4.638 3.04848 3.46666 3.91257 2.60257C4.77665 1.73849 5.948 1.25212 7.17 1.25L16.82 1.25C18.042 1.25212 19.2133 1.73849 20.0774 2.60257C20.9415 3.46666 21.4279 4.638 21.43 5.86V19.95C21.4661 20.4349 21.3731 20.9207 21.1606 21.3581C20.9481 21.7954 20.6235 22.1687 20.22 22.44C19.7858 22.6604 19.3011 22.7626 18.8149 22.7363C18.3286 22.7099 17.8579 22.556 17.45 22.29L12.57 19.58C12.3886 19.5009 12.1929 19.46 11.995 19.46C11.7971 19.46 11.6014 19.5009 11.42 19.58L6.54 22.29C6.05094 22.5772 5.49695 22.7355 4.93 22.75ZM7.18 2.75C6.35598 2.75264 5.56647 3.08114 4.98381 3.66381C4.40114 4.24648 4.07263 5.03599 4.07 5.86V19.95C4.04031 20.1735 4.06786 20.4008 4.15007 20.6107C4.23228 20.8206 4.36645 21.0061 4.54 21.15C4.75057 21.2309 4.97804 21.2577 5.20164 21.228C5.42524 21.1983 5.63783 21.113 5.82 20.98L10.7 18.27C11.1035 18.0677 11.5486 17.9623 12 17.9623C12.4514 17.9623 12.8965 18.0677 13.3 18.27L18.18 20.98C18.3611 21.1153 18.5738 21.202 18.7978 21.2318C19.0219 21.2615 19.2499 21.2334 19.46 21.15C19.6318 21.0047 19.7647 20.819 19.8468 20.6095C19.9288 20.4 19.9574 20.1733 19.93 19.95V5.86C19.9274 5.03599 19.5989 4.24648 19.0162 3.66381C18.4335 3.08114 17.644 2.75264 16.82 2.75H7.18Z" fill="#0B032D"/>
</g>
<defs>
<clipPath id="clip0_3015_1082">
<rect width="24" height="24" fill="white"/>
</clipPath>
</defs>
</svg>
