<svg width="24" height="24" viewBox="0 0 24 24" fill="none" xmlns="http://www.w3.org/2000/svg">
<g clip-path="url(#clip0_3002_227)">
<path d="M18.67 1.99995H16.77C16.319 1.94217 15.8607 1.98853 15.4304 2.13544C15 2.28236 14.6091 2.52594 14.2875 2.84748C13.966 3.16902 13.7224 3.55996 13.5755 3.9903C13.4286 4.42063 13.3822 4.87891 13.44 5.32995V7.22995C13.3822 7.68099 13.4286 8.13927 13.5755 8.5696C13.7224 8.99994 13.966 9.39088 14.2875 9.71242C14.6091 10.034 15 10.2775 15.4304 10.4245C15.8607 10.5714 16.319 10.6177 16.77 10.5599H18.67C19.1211 10.6177 19.5793 10.5714 20.0097 10.4245C20.44 10.2775 20.8309 10.034 21.1525 9.71242C21.474 9.39088 21.7176 8.99994 21.8645 8.5696C22.0114 8.13927 22.0578 7.68099 22 7.22995V5.32995C22.0578 4.87891 22.0114 4.42063 21.8645 3.9903C21.7176 3.55996 21.474 3.16902 21.1525 2.84748C20.8309 2.52594 20.44 2.28236 20.0097 2.13544C19.5793 1.98853 19.1211 1.94217 18.67 1.99995Z" fill="#C4C2CC"/>
<path d="M7.24 13.43H5.34C4.88831 13.3711 4.42914 13.4167 3.99781 13.5631C3.56647 13.7094 3.17444 13.9528 2.85187 14.2744C2.5293 14.596 2.28477 14.9873 2.13709 15.4182C1.98941 15.8491 1.94251 16.3081 2 16.76V18.66C1.94116 19.1117 1.98668 19.5708 2.13307 20.0022C2.27945 20.4335 2.5228 20.8255 2.84441 21.1481C3.16602 21.4707 3.55731 21.7152 3.98821 21.8629C4.41911 22.0106 4.87814 22.0575 5.33 22H7.23C7.68103 22.0578 8.13931 22.0114 8.56965 21.8645C8.99998 21.7176 9.39093 21.474 9.71247 21.1525C10.034 20.8309 10.2776 20.44 10.4245 20.0096C10.5714 19.5793 10.6178 19.121 10.56 18.67V16.77C10.6208 16.3188 10.5769 15.8597 10.4319 15.4282C10.2869 14.9966 10.0445 14.6042 9.72355 14.2814C9.40261 13.9585 9.01168 13.7138 8.58103 13.5661C8.15038 13.4185 7.69153 13.3719 7.24 13.43Z" fill="#C4C2CC"/>
<path d="M10.58 6.29C10.58 7.13848 10.3284 7.96791 9.85701 8.6734C9.38562 9.37888 8.71561 9.92874 7.93171 10.2534C7.14782 10.5781 6.28524 10.6631 5.45306 10.4976C4.62089 10.332 3.85648 9.92346 3.25651 9.32349C2.65655 8.72352 2.24796 7.95912 2.08243 7.12694C1.9169 6.29476 2.00186 5.43218 2.32656 4.64829C2.65126 3.86439 3.20112 3.19439 3.90661 2.723C4.61209 2.2516 5.44152 2 6.29 2C7.42778 2 8.51896 2.45198 9.32349 3.25651C10.128 4.06104 10.58 5.15222 10.58 6.29Z" fill="#0B032D"/>
<path d="M22 17.7099C22 18.5584 21.7484 19.3878 21.277 20.0933C20.8056 20.7988 20.1356 21.3487 19.3517 21.6734C18.5678 21.9981 17.7052 22.083 16.873 21.9175C16.0409 21.752 15.2765 21.3434 14.6765 20.7434C14.0765 20.1434 13.6679 19.379 13.5024 18.5469C13.3369 17.7147 13.4218 16.8521 13.7465 16.0682C14.0712 15.2843 14.6211 14.6143 15.3266 14.1429C16.0321 13.6715 16.8615 13.4199 17.71 13.4199C18.8478 13.4199 19.9389 13.8719 20.7435 14.6764C21.548 15.481 22 16.5721 22 17.7099Z" fill="#0B032D"/>
</g>
<defs>
<clipPath id="clip0_3002_227">
<rect width="24" height="24" fill="white"/>
</clipPath>
</defs>
</svg>
