<svg width="24" height="24" viewBox="0 0 24 24" fill="none" xmlns="http://www.w3.org/2000/svg">
<path d="M22 12C22 13.9778 21.4135 15.9112 20.3147 17.5557C19.2159 19.2002 17.6541 20.4819 15.8268 21.2388C13.9996 21.9957 11.9889 22.1937 10.0491 21.8079C8.10929 21.422 6.32746 20.4696 4.92894 19.0711C3.53041 17.6725 2.578 15.8907 2.19215 13.9509C1.8063 12.0111 2.00433 10.0004 2.76121 8.17317C3.51809 6.3459 4.79981 4.78412 6.4443 3.6853C8.08879 2.58649 10.0222 2 12 2C14.6522 2 17.1957 3.05357 19.0711 4.92893C20.9464 6.8043 22 9.34784 22 12Z" fill="#C4C2CC"/>
<path d="M15.71 15.93C15.5752 15.9324 15.4427 15.8941 15.33 15.82L12.23 13.97C11.834 13.7127 11.5056 13.364 11.2724 12.9533C11.0392 12.5426 10.9081 12.0819 10.89 11.61V7.51001C10.8913 7.3115 10.9708 7.1215 11.1111 6.98113C11.2515 6.84076 11.4415 6.76132 11.64 6.76001C11.8385 6.76132 12.0285 6.84076 12.1689 6.98113C12.3093 7.1215 12.3887 7.3115 12.39 7.51001V11.61C12.4088 11.8217 12.473 12.0269 12.5782 12.2116C12.6835 12.3962 12.8274 12.556 13 12.68L16.1 14.53C16.1849 14.5804 16.2591 14.647 16.3181 14.7261C16.3772 14.8052 16.42 14.8952 16.4442 14.9909C16.4684 15.0867 16.4734 15.1862 16.4589 15.2839C16.4445 15.3815 16.4109 15.4754 16.36 15.56C16.292 15.6718 16.1967 15.7645 16.083 15.8292C15.9692 15.894 15.8409 15.9287 15.71 15.93Z" fill="#0B032D"/>
</svg>
